ply
format ascii 1.0
element vertex 16
property float x
property float y
property float z
property float nx
property float ny
property float nz
property uchar red
property uchar green
property uchar blue
end_header
-0.600190668512805 -1.17858958628443 -0.570617973804474 1.0 0.0 0.0 50.0 50.0 50.0
-1.394697665382846 -1.4243936949637246 0.3733530044555664 2.9530300427182965e-09 -0.3669889867305758 -0.9302250146865844 50.0 50.0 50.0
-0.6103596679463225 -1.492008604690851 0.42375999689102173 -7.876270302631383e-09 0.25904399156570457 0.9658650159835814 50.0 50.0 50.0
-0.6232616595520811 -1.1582056024339509 -0.16012200713157662 0.0 1.0 -2.220446049250313e-16 50.0 50.0 50.0
-0.3689542396630241 0.7432834895479385 -0.0013274600496516046 0.0 0.10570699721574806 0.994396984577179 50.0 50.0 50.0
-0.014668914739329963 1.0885314883815949 -0.35661399364471447 -1.0 0.0 0.0 50.0 50.0 50.0
-0.42681031978531614 0.040214473210543944 0.5331619977951051 0.0 -0.974124014377594 -0.22601400315761544 50.0 50.0 50.0
-0.5033049166838719 0.24314647337076112 -0.08726330101490014 0.0 -0.3710089921951292 0.928628981113434 50.0 50.0 50.0
1.72327872578812 -1.5602818684150999 -0.7186340093612671 -1.0 0.0 0.0 50.0 50.0 50.0
1.7884167379589115 -1.4781058685352628 -0.7371940016746521 1.0 0.0 0.0 50.0 50.0 50.0
1.711383724853519 -0.9944428609182658 -0.022100100293755608 0.10883600264787674 2.2072565551214815e-16 0.9940599799156189 50.0 50.0 50.0
1.08749472562981 -1.1792798595001523 -0.7815380096435547 -1.0 0.0 0.0 50.0 50.0 50.0
1.1404189002001734 1.0714867453789938 0.3033500015735627 -1.0 0.0 0.0 50.0 50.0 50.0
1.159777922579095 1.0130927603459585 0.5219929814338685 0.0 -1.0 2.220446049250313e-16 50.0 50.0 50.0
1.1817869078600856 1.793460730812572 -0.7189700007438661 0.0 1.0 -2.220446049250313e-16 50.0 50.0 50.0
1.2082769107306452 1.784078751108669 -0.19347399473190316 1.0 0.0 0.0 50.0 50.0 50.0
